<svg width="28" height="27" viewBox="0 0 28 27" fill="none" xmlns="http://www.w3.org/2000/svg">
<path d="M1.95639 26.9997C2.22044 26.9997 2.4845 26.9007 2.71555 26.7027L27.4378 1.94742C27.8339 1.55133 27.8339 0.858186 27.4378 0.462102C27.0417 0.066018 26.3486 0.066018 25.9525 0.462102L1.23024 25.1844C0.83415 25.5804 0.83415 26.2736 1.23024 26.6697C1.42828 26.8677 1.69233 26.9997 1.95639 26.9997Z" fill="#F8FAFC"/>
<path d="M9.0858 2.11245H26.5795C27.1736 2.11245 27.6357 1.65035 27.6357 1.05623C27.6357 0.4621 27.1736 0 26.5795 0H9.0858C8.49167 0 8.02958 0.4621 8.02958 1.05623C8.02958 1.65035 8.49167 2.11245 9.0858 2.11245Z" fill="#F8FAFC"/>
<path d="M26.8437 19.8698C27.4378 19.8698 27.8999 19.4077 27.8999 18.8136V1.3199C27.8999 0.725769 27.4378 0.263672 26.8437 0.263672C26.2496 0.263672 25.7875 0.725769 25.7875 1.3199V18.8136C25.7875 19.4077 26.2496 19.8698 26.8437 19.8698Z" fill="#F8FAFC"/>
</svg>
