<svg width="97" height="153" viewBox="0 0 97 153" fill="none" xmlns="http://www.w3.org/2000/svg">
<path d="M45.34 152.3V137C30.82 136.04 19.9 131.72 12.58 124.04C5.38 116.24 1.48 106.7 0.88 95.42H16C16.84 104.3 19.54 111.2 24.1 116.12C28.78 121.04 35.86 123.92 45.34 124.76V78.14C38.98 76.7 33.76 75.32 29.68 74C25.72 72.56 21.76 70.58 17.8 68.06C13.96 65.54 11.14 62.36 9.34 58.52C7.54 54.56 6.64 49.82 6.64 44.3C6.64 34.34 10.18 26.42 17.26 20.54C24.34 14.54 33.7 11.24 45.34 10.64V0.739995H55.42V10.64C78.22 12.32 91.06 23.3 93.94 43.58H79.36C77.68 31.34 69.7 24.38 55.42 22.7V66.08C62.14 67.4 67.66 68.78 71.98 70.22C76.3 71.66 80.5 73.64 84.58 76.16C88.78 78.68 91.84 82.04 93.76 86.24C95.8 90.32 96.82 95.3 96.82 101.18C96.82 111.74 92.92 120.26 85.12 126.74C77.44 133.1 67.54 136.58 55.42 137.18V152.3H45.34ZM82.06 101.72C82.06 95.48 80.02 90.92 75.94 88.04C71.86 85.16 65.02 82.64 55.42 80.48V124.94C62.98 124.34 69.28 122 74.32 117.92C79.48 113.72 82.06 108.32 82.06 101.72ZM20.86 43.58C20.86 49.22 22.78 53.6 26.62 56.72C30.46 59.72 36.7 62.18 45.34 64.1V22.52C37.9 23.12 31.96 25.28 27.52 29C23.08 32.6 20.86 37.46 20.86 43.58Z" fill="#121212"/>
</svg>
