<svg width="28" height="29" viewBox="0 0 28 29" fill="none" xmlns="http://www.w3.org/2000/svg">
<g clip-path="url(#clip0_35_105)">
<path d="M22.3013 6.94845C23.5012 6.29007 24.4702 6.07059 25.2085 6.29007C25.993 6.46563 26.5468 6.81679 26.8698 7.34351C27.1927 7.82633 27.239 8.41889 27.0082 9.12117C26.7775 9.82345 26.0622 10.5038 24.8623 11.1622C23.7088 11.7767 22.2782 12.2815 20.5708 12.6765C18.9096 13.0277 16.7869 13.5763 14.2027 14.3225L14.1334 14.125C15.9793 12.457 17.5252 11.0085 18.7711 9.77957C20.0171 8.50665 21.1938 7.56298 22.3013 6.94845ZM14.2719 14.125C16.7176 14.8273 18.8173 15.3759 20.5708 15.771C22.3244 16.166 23.778 16.6708 24.9315 17.2853C26.1314 17.9437 26.8236 18.6459 27.0082 19.3921C27.239 20.0944 27.1696 20.7089 26.8006 21.2356C26.5238 21.7185 26.0161 22.0476 25.2777 22.2232C24.5394 22.3988 23.5704 22.1574 22.3705 21.499C21.2169 20.8845 20.0402 19.9847 18.8404 18.7996C17.6405 17.5706 16.0716 16.0782 14.1334 14.3225L14.2719 14.125ZM14.3411 14.2567C14.941 16.583 15.4947 18.5801 16.0024 20.2481C16.51 21.916 16.7869 23.3645 16.833 24.5935C16.7869 25.9102 16.4869 26.8321 15.9332 27.3588C15.3794 27.8853 14.7795 28.1487 14.1334 28.1487C13.5336 28.1487 12.9798 27.9073 12.4722 27.4246C11.9646 26.8979 11.7108 25.9542 11.7108 24.5935C11.7108 23.3205 11.9646 21.894 12.4722 20.3139C12.9798 18.7338 13.5336 16.7147 14.1334 14.2567H14.3411ZM14.1334 14.1908L14.2719 14.3883C12.4261 16.0124 10.8801 17.4608 9.63421 18.7338C8.38827 20.0066 7.21154 20.9503 6.10404 21.5649C4.90422 22.2232 3.9121 22.4646 3.12761 22.289C2.38928 22.0696 1.8586 21.6965 1.53557 21.1698C1.21255 20.687 1.16641 20.1164 1.39714 19.458C1.62787 18.7557 2.34313 18.0534 3.54293 17.3511C4.69658 16.7366 6.10404 16.2318 7.76528 15.8368C9.47268 15.4418 11.5954 14.8931 14.1334 14.1908ZM6.03482 7.01431C7.18845 7.62882 8.36519 8.55057 9.56499 9.77957C10.7648 10.9647 12.3107 12.4351 14.2027 14.1908L14.1334 14.3883C11.7339 13.686 9.63421 13.1374 7.83451 12.7424C6.08096 12.3034 4.62736 11.7986 3.47371 11.228C2.32006 10.5696 1.62787 9.88928 1.39714 9.187C1.21255 8.44082 1.28177 7.80438 1.60479 7.27765C1.88167 6.79483 2.38928 6.46563 3.12761 6.29007C3.86595 6.11451 4.835 6.3559 6.03482 7.01431ZM14.2027 0.364502C14.8487 0.364502 15.4255 0.627861 15.9332 1.15458C16.4408 1.68129 16.6946 2.60305 16.6946 3.91984C16.6946 5.14884 16.4408 6.57538 15.9332 8.19941C15.4717 9.77957 14.9179 11.7986 14.2719 14.2567H14.0642C13.4643 11.9303 12.9106 9.93319 12.403 8.26526C11.8954 6.59731 11.6416 5.14884 11.6416 3.91984C11.6416 2.60305 11.9184 1.68129 12.4722 1.15458C13.0259 0.627861 13.6028 0.364502 14.2027 0.364502Z" fill="black"/>
</g>
<defs>
<clipPath id="clip0_35_105">
<rect width="26.6494" height="27.9818" fill="white" transform="translate(0.981934 0.298706)"/>
</clipPath>
</defs>
</svg>
