<svg width="67" height="67" viewBox="0 0 67 67" fill="none" xmlns="http://www.w3.org/2000/svg">
<path d="M33.6469 14.1915C32.9107 14.1915 32.2046 14.484 31.684 15.0046C31.1634 15.5252 30.8709 16.2313 30.8709 16.9675V30.8474H16.9911C16.2548 30.8474 15.5487 31.1398 15.0282 31.6604C14.5076 32.181 14.2151 32.8871 14.2151 33.6233C14.2151 34.3596 14.5076 35.0657 15.0282 35.5863C15.5487 36.1069 16.2548 36.3993 16.9911 36.3993H30.8709V50.2792C30.8709 51.0154 31.1634 51.7215 31.684 52.2421C32.2046 52.7627 32.9107 53.0552 33.6469 53.0552C34.3831 53.0552 35.0892 52.7627 35.6098 52.2421C36.1304 51.7215 36.4229 51.0154 36.4229 50.2792V36.3993H50.3027C51.039 36.3993 51.7451 36.1069 52.2657 35.5863C52.7863 35.0657 53.0787 34.3596 53.0787 33.6233C53.0787 32.8871 52.7863 32.181 52.2657 31.6604C51.7451 31.1398 51.039 30.8474 50.3027 30.8474H36.4229V16.9675C36.4229 16.2313 36.1304 15.5252 35.6098 15.0046C35.0892 14.484 34.3831 14.1915 33.6469 14.1915Z" fill="black"/>
</svg>
